<svg width="16" height="12" viewBox="0 0 16 12" fill="none" xmlns="http://www.w3.org/2000/svg">
<mask id="mask0_323:3059" style="mask-type:alpha" maskUnits="userSpaceOnUse" x="0" y="0" width="16" height="12">
<rect width="16" height="12" fill="white"/>
</mask>
<g mask="url(#mask0_323:3059)">
<path fill-rule="evenodd" clip-rule="evenodd" d="M0 0V12H16V0H0Z" fill="#3D58DB"/>
<mask id="mask1_323:3059" style="mask-type:alpha" maskUnits="userSpaceOnUse" x="0" y="0" width="16" height="12">
<path fill-rule="evenodd" clip-rule="evenodd" d="M0 0V12H16V0H0Z" fill="white"/>
</mask>
<g mask="url(#mask1_323:3059)">
<path fill-rule="evenodd" clip-rule="evenodd" d="M0 0V4H16V0H0Z" fill="#F7FCFF"/>
<path fill-rule="evenodd" clip-rule="evenodd" d="M0 8V12H16V8H0Z" fill="#C51918"/>
</g>
</g>
<rect width="16" height="12" fill="url(#paint0_linear_323:3059)" style="mix-blend-mode:overlay"/>
<path d="M1 1H15V-1H1V1ZM15 1V11H17V1H15ZM15 11H1V13H15V11ZM1 11V1H-1V11H1ZM1 11L1 11H-1C-1 12.1046 -0.10457 13 1 13V11ZM15 11L15 11V13C16.1046 13 17 12.1046 17 11H15ZM15 1L15 1H17C17 -0.104569 16.1046 -1 15 -1V1ZM1 -1C-0.104569 -1 -1 -0.10457 -1 1H1L1 1V-1Z" fill="black" fill-opacity="0.1" style="mix-blend-mode:multiply"/>
<defs>
<linearGradient id="paint0_linear_323:3059" x1="8" y1="0" x2="8" y2="12" gradientUnits="userSpaceOnUse">
<stop stop-color="white" stop-opacity="0.7"/>
<stop offset="1" stop-opacity="0.3"/>
</linearGradient>
</defs>
</svg>
