<svg width="16" height="12" viewBox="0 0 16 12" fill="none" xmlns="http://www.w3.org/2000/svg">
<mask id="mask0_323:3025" style="mask-type:alpha" maskUnits="userSpaceOnUse" x="0" y="0" width="16" height="12">
<rect width="16" height="12" fill="white"/>
</mask>
<g mask="url(#mask0_323:3025)">
<path fill-rule="evenodd" clip-rule="evenodd" d="M0 0H16V12H0V0Z" fill="#E31D1C"/>
<path fill-rule="evenodd" clip-rule="evenodd" d="M0 1V2H16V1H0ZM0 3V4H16V3H0ZM0 6V5H16V6H0ZM0 7V8H16V7H0ZM0 10V9H16V10H0ZM0 12V11H16V12H0Z" fill="#F7FCFF"/>
<rect width="9" height="7" fill="#2E42A5"/>
<path fill-rule="evenodd" clip-rule="evenodd" d="M1.03981 2.17375L1.56973 1.80462L1.98079 2.10055H1.74805L2.21872 2.51685L2.05974 3.10055H1.81076L1.56899 2.56445L1.3628 3.10055H0.748047L1.21872 3.51685L1.03981 4.17375L1.56973 3.80462L1.98079 4.10055H1.74805L2.21872 4.51685L2.05974 5.10055H1.81076L1.56899 4.56445L1.3628 5.10055H0.748047L1.21872 5.51685L1.03981 6.17375L1.56973 5.80462L2.08246 6.17375L1.92305 5.51685L2.33482 5.10055H2.14489L2.56973 4.80462L2.98079 5.10055H2.74805L3.21872 5.51685L3.03981 6.17375L3.56973 5.80462L4.08246 6.17375L3.92305 5.51685L4.33482 5.10055H4.14489L4.56973 4.80462L4.98079 5.10055H4.74805L5.21872 5.51685L5.03981 6.17375L5.56973 5.80462L6.08246 6.17375L5.92305 5.51685L6.33482 5.10055H6.14489L6.56973 4.80462L6.98079 5.10055H6.74805L7.21872 5.51685L7.03981 6.17375L7.56973 5.80462L8.08246 6.17375L7.92305 5.51685L8.33482 5.10055H7.81076L7.56899 4.56445L7.3628 5.10055H7.0647L6.92305 4.51685L7.33482 4.10055H7.14489L7.56973 3.80462L8.08246 4.17375L7.92305 3.51685L8.33482 3.10055H7.81076L7.56899 2.56445L7.3628 3.10055H7.0647L6.92305 2.51685L7.33482 2.10055H7.14489L7.56973 1.80462L8.08246 2.17375L7.92305 1.51685L8.33482 1.10055H7.81076L7.56899 0.564453L7.3628 1.10055H6.74805L7.21872 1.51685L7.05974 2.10055H6.81076L6.56899 1.56445L6.3628 2.10055H6.0647L5.92305 1.51685L6.33482 1.10055H5.81076L5.56899 0.564453L5.3628 1.10055H4.74805L5.21872 1.51685L5.05974 2.10055H4.81076L4.56899 1.56445L4.3628 2.10055H4.0647L3.92305 1.51685L4.33482 1.10055H3.81076L3.56899 0.564453L3.3628 1.10055H2.74805L3.21872 1.51685L3.05974 2.10055H2.81076L2.56899 1.56445L2.3628 2.10055H2.0647L1.92305 1.51685L2.33482 1.10055H1.81076L1.56899 0.564453L1.3628 1.10055H0.748047L1.21872 1.51685L1.03981 2.17375ZM7.05974 4.10055L7.21872 3.51685L6.74805 3.10055H6.98079L6.56973 2.80462L6.14489 3.10055H6.33482L5.92305 3.51685L6.0647 4.10055H6.3628L6.56899 3.56445L6.81076 4.10055H7.05974ZM5.98079 4.10055L5.56973 3.80462L5.14489 4.10055H5.33482L4.92305 4.51685L5.0647 5.10055H5.3628L5.56899 4.56445L5.81076 5.10055H6.05974L6.21872 4.51685L5.74805 4.10055H5.98079ZM4.21872 4.51685L4.05974 5.10055H3.81076L3.56899 4.56445L3.3628 5.10055H3.0647L2.92305 4.51685L3.33482 4.10055H3.14489L3.56973 3.80462L3.98079 4.10055H3.74805L4.21872 4.51685ZM4.3628 4.10055H4.0647L3.92305 3.51685L4.33482 3.10055H4.14489L4.56973 2.80462L4.98079 3.10055H4.74805L5.21872 3.51685L5.05974 4.10055H4.81076L4.56899 3.56445L4.3628 4.10055ZM3.05974 4.10055L3.21872 3.51685L2.74805 3.10055H2.98079L2.56973 2.80462L2.14489 3.10055H2.33482L1.92305 3.51685L2.0647 4.10055H2.3628L2.56899 3.56445L2.81076 4.10055H3.05974ZM6.21872 2.51685L6.05974 3.10055H5.81076L5.56899 2.56445L5.3628 3.10055H5.0647L4.92305 2.51685L5.33482 2.10055H5.14489L5.56973 1.80462L5.98079 2.10055H5.74805L6.21872 2.51685ZM3.98079 2.10055L3.56973 1.80462L3.14489 2.10055H3.33482L2.92305 2.51685L3.0647 3.10055H3.3628L3.56899 2.56445L3.81076 3.10055H4.05974L4.21872 2.51685L3.74805 2.10055H3.98079Z" fill="#F7FCFF"/>
</g>
<rect width="16" height="12" fill="url(#paint0_linear_323:3025)" style="mix-blend-mode:overlay"/>
<path d="M1 1H15V-1H1V1ZM15 1V11H17V1H15ZM15 11H1V13H15V11ZM1 11V1H-1V11H1ZM1 11L1 11H-1C-1 12.1046 -0.10457 13 1 13V11ZM15 11L15 11V13C16.1046 13 17 12.1046 17 11H15ZM15 1L15 1H17C17 -0.104569 16.1046 -1 15 -1V1ZM1 -1C-0.104569 -1 -1 -0.10457 -1 1H1L1 1V-1Z" fill="black" fill-opacity="0.1" style="mix-blend-mode:multiply"/>
<defs>
<linearGradient id="paint0_linear_323:3025" x1="8" y1="0" x2="8" y2="12" gradientUnits="userSpaceOnUse">
<stop stop-color="white" stop-opacity="0.7"/>
<stop offset="1" stop-opacity="0.3"/>
</linearGradient>
</defs>
</svg>
